<svg id="Layer_35" enable-background="new 0 0 64 64" height="512" viewBox="0 0 64 64" width="512" xmlns="http://www.w3.org/2000/svg"><path d="m49 62h-34c0-1.1.45-2.1 1.17-2.83.73-.72 1.73-1.17 2.83-1.17h3 20 3c2.21 0 4 1.79 4 4z" fill="#aab2bd"/><path d="m22 52h20v6h-20z" fill="#aab2bd"/><path d="m11.17 36.57 3.81 6.47c1.05 1.8 2.99 2.92 5.07 2.96h.1 4.35 8.5 22 4c1.65 0 3 1.35 3 3s-1.35 3-3 3h-17-20-1.85c-4.24 0-8.2-2.27-10.35-5.92l-7.39-12.56c-.83-1.43-.36-3.27 1.07-4.11.46-.27.99-.41 1.52-.41 1.06 0 2.05.57 2.59 1.48z" fill="#dfb28b"/><path d="m26.96 43.04c.03.15.04.3.04.46 0 .69-.28 1.32-.73 1.77s-1.08.73-1.77.73h-4.35c-.03 0-.07 0-.1 0-2.08-.04-4.02-1.16-5.07-2.96l-3.81-6.47-.07-.36c-.14-.84-.14-1.72.04-2.58.37-1.84 1.43-3.42 2.98-4.46 1.16-.76 2.5-1.17 3.88-1.17 2.35 0 4.53 1.17 5.83 3.12l.22.33c-.03.18-.05.36-.05.55 0 1.45 1.02 2.65 2.37 2.93v.01l3.38 5.06h.25z" fill="#e6e9ed"/><path d="m27 43.5c0-.16-.01-.31-.04-.46l3.04-3.04h1 23 1c.83 0 1.58.34 2.12.88s.88 1.29.88 2.12c0 1.66-1.34 3-3 3h-22-8.5c.69 0 1.32-.28 1.77-.73s.73-1.08.73-1.77z" fill="#838f9b"/><path d="m38 35.35c1.46-.88 3.14-1.35 4.86-1.35 2.04 0 4.02.66 5.66 1.89l3.48 2.61 2 1.5h-23l6.62-4.42c.12-.08.25-.16.38-.23z" fill="#838f9b"/><path d="m42.3 27.31-.3-.31h-4v-6c0-1.1-.9-2-2-2h-12.8-1.7c-1.38 0-2.5-1.12-2.5-2.5 0-.14.01-.28.04-.41.08-.53.33-1 .69-1.36.45-.45 1.08-.73 1.77-.73h19.75l1.75 7 3-3 3 3 1.7-6.81v-.01c3.6.78 6.3 3.98 6.3 7.82v6.5c0 1.38-1.12 2.5-2.5 2.5h-2.5-7.5c-1.38 0-2.5-1.12-2.5-2.5 0-.43.11-.84.3-1.19z" fill="#b4dd7f"/><path d="m42 28.5c0 1.38 1.12 2.5 2.5 2.5h7.5v7.5l-3.48-2.61c-1.64-1.23-3.62-1.89-5.66-1.89-1.72 0-3.4.47-4.86 1.35v-8.35h4l.3.31c-.19.35-.3.76-.3 1.19z" fill="#b4dd7f"/><path d="m50.7 14.18v.01l-1.7 6.81-3-3 3.19-3.99v-.01c.52.01 1.02.08 1.51.18z" fill="#e6e9ed"/><path d="m42.8 14 3.2 4-3 3-1.75-7z" fill="#e6e9ed"/><g fill="#f0d0b4"><path d="m49 14h.19v.01l-3.19 3.99-3.2-4h3.2z"/><path d="m23.2 19c.51.88.8 1.91.8 3 0 3.31-2.69 6-6 6s-6-2.69-6-6 2.69-6 6-6c.35 0 .7.03 1.04.09-.03.13-.04.27-.04.41 0 1.38 1.12 2.5 2.5 2.5z"/><circle cx="46" cy="8" r="6"/></g><path d="m30 32c0 1.66-1.34 3-3 3-.21 0-.42-.02-.63-.06v-.01c-1.35-.28-2.37-1.48-2.37-2.93 0-.19.02-.37.05-.55.26-1.39 1.48-2.45 2.95-2.45 1.01 0 1.9.5 2.44 1.26.35.49.56 1.09.56 1.74z" fill="#fcd770"/><path d="m59 45h-.556c.344-.591.556-1.268.556-2 0-2.206-1.794-4-4-4h-.667l-1.333-1v-6h1.5c1.93 0 3.5-1.57 3.5-3.5v-6.5c0-4.379-3.145-8.033-7.294-8.833 1.405-1.281 2.294-3.12 2.294-5.167 0-3.859-3.141-7-7-7s-7 3.141-7 7c0 1.958.81 3.728 2.111 5h-19.611c-1.403 0-2.607.835-3.165 2.029-.112-.006-.222-.029-.335-.029-3.859 0-7 3.141-7 7 0 2.5 1.322 4.691 3.298 5.93-.247.129-.495.256-.729.412-1.669 1.111-2.829 2.773-3.314 4.702l-1.808-3.073c-.716-1.216-2.037-1.971-3.448-1.971-.71 0-1.411.19-2.026.552-1.899 1.116-2.538 3.571-1.422 5.475l7.391 12.564c2.326 3.953 6.62 6.409 11.205 6.409h.853v4h-2c-2.757 0-5 2.243-5 5v1h36v-1c0-2.757-2.243-5-5-5h-2v-4h16c2.206 0 4-1.794 4-4s-1.794-4-4-4zm-2-2c0 1.103-.897 2-2 2h-22-5.351c.218-.456.351-.961.351-1.5 0-.027-.007-.051-.008-.078l2.422-2.422h.889 23.697c1.103 0 2 .897 2 2zm-33.147-13.44c-.619-.667-1.336-1.225-2.131-1.642 1.966-1.241 3.278-3.427 3.278-5.918 0-.681-.109-1.353-.301-2h11.301c.552 0 1 .448 1 1v5h-3.32l-4.126 2.947c-.695-.582-1.578-.947-2.554-.947-1.283 0-2.414.618-3.147 1.56zm3.147.44c1.103 0 2 .897 2 2s-.897 2-2 2-2-.897-2-2 .897-2 2-2zm4 2c0-.506-.104-.985-.276-1.431l3.596-2.569h2.68v6.798l-6.303 4.202h-.414l-2.127-3.191c1.64-.499 2.844-2.008 2.844-3.809zm3.303 7 3.876-2.584c1.388-.927 3.006-1.416 4.676-1.416 1.812 0 3.61.599 5.061 1.687l3.085 2.313zm16.697-2.5-1.885-1.414c-1.794-1.345-4.016-2.086-6.26-2.086-1.335 0-2.634.278-3.855.766v-5.766h2.051c-.024.165-.051.329-.051.5 0 1.93 1.57 3.5 3.5 3.5h6.5zm-5-20.101-1.119-1.399h2.238zm-1.34 1.527-1.118 1.118-.915-3.659zm4.712-2.54-.914 3.658-1.118-1.118zm-8.372-7.386c0-2.757 2.243-5 5-5s5 2.243 5 5-2.243 5-5 5-5-2.243-5-5zm-19.5 7h18.97l1.988 7.956 3.542-3.542 3.542 3.542 1.878-7.516c2.669.988 4.58 3.552 4.58 6.56v6.5c0 .827-.673 1.5-1.5 1.5h-10c-.827 0-1.5-.673-1.5-1.5s.673-1.5 1.5-1.5h8.5v-6h-2v4h-6.5c-.98 0-1.864.407-2.5 1.058v-.058h-3v-5c0-1.654-1.346-3-3-3h-14.5c-.827 0-1.5-.673-1.5-1.5s.673-1.5 1.5-1.5zm-8.5 7c0-2.757 2.243-5 5-5 .017 0 .034.004.051.004.247 1.69 1.692 2.996 3.449 2.996h1.078c.274.627.422 1.308.422 2 0 2.757-2.243 5-5 5s-5-2.243-5-5zm-.911 14.037c-.128-.731-.118-1.477.03-2.214.314-1.573 1.224-2.929 2.558-3.817.989-.658 2.139-1.006 3.326-1.006 2.014 0 3.879.998 4.991 2.67l.034.051c-.006.094-.028.184-.028.279 0 1.759 1.148 3.239 2.729 3.774l2.833 4.25-1.324 1.324c-.641-.815-1.624-1.348-2.738-1.348h-3.085c-.523 0-1.017-.279-1.286-.729l-2.271-3.786-1.715 1.029 2.271 3.786c.63 1.049 1.779 1.7 3.001 1.7h3.085c.827 0 1.5.673 1.5 1.5s-.673 1.5-1.5 1.5h-4.353c-1.764 0-3.415-.944-4.31-2.465l-3.712-6.311zm35.74 24.963h-31.658c.413-1.164 1.525-2 2.829-2h26c1.304 0 2.416.836 2.829 2zm-6.829-4h-18v-4h18zm18-6h-38.853c-3.881 0-7.514-2.078-9.481-5.423l-7.391-12.563c-.558-.951-.239-2.18.71-2.737.309-.181.66-.277 1.014-.277.706 0 1.367.378 1.725.985l7.39 12.563c1.236 2.1 3.503 3.409 5.935 3.445v.007h.1 4.351 8.5 22 4c1.103 0 2 .897 2 2s-.897 2-2 2z"/></svg>