<svg id="Layer_35" enable-background="new 0 0 64 64" height="512" viewBox="0 0 64 64" width="512" xmlns="http://www.w3.org/2000/svg"><path d="m32 25.98v1.17c0 2.83-1.98 5.27-4.74 5.87l-1.26.26c-5.18 1.12-9.86 3.92-13.29 7.97l-4.69 5.54c-.65.77-1.6 1.21-2.6 1.21-1.89 0-3.42-1.53-3.42-3.42v-18.58c0-6.62 2.69-12.62 7.03-16.97 4.35-4.34 10.35-7.03 16.97-7.03 3.31 0 6 2.69 6 6z" fill="#ecc19c"/><path d="m57.33 2c2.58 0 4.67 2.09 4.67 4.67 0 1.47-.69 2.85-1.87 3.73l-3.48 2.61c-1.76 1.32-3.33 2.88-4.66 4.62l-9.18 12.01c-.73.94-1.71 1.64-2.81 2.03v-3.67h-4v3.65c-2.33-.83-4-3.06-4-5.67v-17.98c0-3.31 2.69-6 6-6z" fill="#ecc19c"/><path d="m32 44v8h-2c-1.1 0-2-.9-2-2v-4c0-1.1.9-2 2-2z" fill="#b4dd7f"/><path d="m44 40v16c0 1.66-.67 3.16-1.76 4.24-1.08 1.09-2.58 1.76-4.24 1.76-3.31 0-6-2.69-6-6h6v-16z" fill="#fcd770"/><path d="m38 40v16h-6v-4-8-4z" fill="#e6e9ed"/><path d="m44 36v4h-6-6v-4h4 4z" fill="#ffeaa7"/><path d="m40 31.67v4.33h-4v-4.35-3.65h4z" fill="#e6e9ed"/><path d="m27 27.149c0 .469-.333.88-.791.979l-1.253.269c-4.42.946-8.63 2.961-12.174 5.826l1.257 1.555c3.302-2.668 7.222-4.544 11.336-5.426l1.253-.269c1.374-.294 2.372-1.528 2.372-2.934v-3.149h-2z"/><path d="m26 5c-11.58 0-21 9.421-21 21v3h2v-3c0-10.477 8.523-19 19-19z"/><path d="m5 31h2v2h-2z"/><path d="m5 35h2v2h-2z"/><path d="m5 39h2v2h-2z"/><path d="m35 8v9h2v-9c0-.552.449-1 1-1h5v-2h-5c-1.654 0-3 1.346-3 3z"/><path d="m35 19h2v2h-2z"/><path d="m57.333 1h-19.333c-2.548 0-4.775 1.373-6 3.413-1.225-2.04-3.452-3.413-6-3.413-13.785 0-25 11.215-25 25v18.584c0 2.435 1.981 4.416 4.416 4.416 1.302 0 2.53-.569 3.372-1.563l4.688-5.542c3.269-3.862 7.793-6.572 12.739-7.632l1.252-.269c2.192-.469 3.952-1.975 4.859-3.922.678.944 1.596 1.708 2.674 2.225v2.703h-4v8h-1c-1.654 0-3 1.346-3 3v4c0 1.654 1.346 3 3 3h1v3c0 3.859 3.14 7 7 7s7-3.141 7-7v-21h-4v-2.679c1.019-.477 1.914-1.177 2.603-2.078l9.179-12.003c1.28-1.674 2.784-3.164 4.47-4.429l3.482-2.611c1.419-1.064 2.266-2.76 2.266-4.533 0-3.125-2.542-5.667-5.667-5.667zm-26.333 26.149c0 2.343-1.662 4.398-3.952 4.89l-1.252.269c-5.376 1.151-10.294 4.097-13.847 8.296l-4.689 5.541c-.46.543-1.132.855-1.844.855-1.333 0-2.416-1.084-2.416-2.416v-18.584c0-12.683 10.318-23 23-23 2.757 0 5 2.243 5 5v17.977zm2 13.851h4v14h-4zm-3 10c-.551 0-1-.448-1-1v-4c0-.552.449-1 1-1h1v6zm8 10c-2.414 0-4.434-1.721-4.899-4h5.899v-16h4v15c0 2.757-2.243 5-5 5zm5-22h-4-6v-2h10zm-6-4v-6h2v6zm22.533-25.399-3.482 2.611c-1.833 1.374-3.467 2.994-4.859 4.813l-9.179 12.003c-.291.38-.633.712-1.014.992v-3.02h-6v2.986c-1.234-.933-2-2.408-2-4.009v-17.977c0-2.757 2.243-5 5-5h19.333c2.023 0 3.668 1.645 3.668 3.667 0 1.147-.548 2.244-1.467 2.934z"/><path d="m27 20h2v2h-2z"/></svg>