<svg id="Capa_1" enable-background="new 0 0 497 497" height="512" viewBox="0 0 497 497" width="512" xmlns="http://www.w3.org/2000/svg"><g><path d="m336.441 170.5c-40.284 0-72.941 32.657-72.941 72.941v246.059c0 4.142 3.358 7.5 7.5 7.5h15c4.142 0 7.5-3.358 7.5-7.5v-229c0-16.569 13.431-30 30-30h72.941v-60z" fill="#ffd959"/><path d="m160.559 170.5c40.284 0 72.941 32.657 72.941 72.941v246.059c0 4.142-3.358 7.5-7.5 7.5h-15c-4.142 0-7.5-3.358-7.5-7.5v-229c0-16.569-13.431-30-30-30h-72.941v-60z" fill="#ffeaa6"/><path d="m147.645 200.5c0-9.736 2.963-17.42 10.581-26.929 25.364-31.524 18.129-78.265-14.227-102.616-15.531-11.688-33.801-15.614-51.683-13.307v285.704c17.882 2.307 36.153-1.619 51.683-13.307 32.356-24.352 39.591-71.092 14.227-102.616-7.618-9.508-10.581-17.193-10.581-26.929z" fill="#ea1726"/><path d="m130.867 227.429c-6.301-9.509-8.752-17.193-8.752-26.929s2.45-17.42 8.752-26.929c20.978-31.524 14.994-78.265-11.767-102.616-8.225-7.484-17.38-11.781-26.784-13.307-19.374 2.5-38.291 12.319-52.768 27.595-28.545 30.122-39.548 73.294-39.548 115.257s11.003 85.135 39.548 115.257c14.477 15.277 33.394 25.096 52.768 27.595 9.404-1.526 18.56-5.823 26.784-13.307 26.761-24.352 32.746-71.092 11.767-102.616z" fill="#ff4547"/><circle cx="248.5" cy="165" fill="#414851" r="15"/><path d="m248.5 0c-8.284 0-15 6.716-15 15v90c0 8.284 6.716 15 15 15s15-6.716 15-15v-90c0-8.284-6.716-15-15-15z" fill="#414851"/><path d="m457.452 85.243c-18.094-19.094-43.122-29.677-67.312-28.07l.015 286.654c24.185 1.602 49.207-8.981 67.297-28.071 28.545-30.121 39.548-73.293 39.548-115.256s-11.003-85.135-39.548-115.257z" fill="#ea1726"/><path d="m435.691 315.757c22.598-30.122 31.309-73.294 31.309-115.257s-8.711-85.135-31.309-115.257c-12.4-16.529-28.915-26.681-45.551-28.07-13.028.866-25.813 5.257-37.139 13.782-32.356 24.352-39.591 71.092-14.227 102.616 7.619 9.509 10.581 17.193 10.581 26.929s-2.963 17.42-10.581 26.929c-25.364 31.524-18.129 78.264 14.227 102.616 11.331 8.527 24.121 12.919 37.154 13.782 16.631-1.393 33.14-11.546 45.536-28.07z" fill="#ff4547"/></g></svg>