<svg height="512" viewBox="0 0 128 128" width="512" xmlns="http://www.w3.org/2000/svg"><g><g><path d="m88.706 31h-49.506a7.862 7.862 0 0 1 -7.553-5.68l-1.359-4.707h67.33l-1.359 4.707a7.862 7.862 0 0 1 -7.553 5.68z" fill="#e6f0f0"/><path d="m57.818 31h12.268v8.853h-12.268z" fill="#d0d8da"/><path d="m53.702 39.853h20.5v12.147h-20.5z" fill="#fbbb2d"/><path d="m95.3 107.386h-62.693a3.169 3.169 0 0 1 -3.15-3.51l5.313-49.049a3.169 3.169 0 0 1 3.15-2.827h52.063a3.167 3.167 0 0 1 3.15 2.827l5.313 49.049a3.169 3.169 0 0 1 -3.146 3.51z" fill="#f8e034"/><circle cx="63.952" cy="79.693" fill="#f66755" r="15.266"/><path d="m63.952 81.442a1.749 1.749 0 0 1 -1.75-1.75v-9.375a1.75 1.75 0 0 1 3.5 0v9.375a1.75 1.75 0 0 1 -1.75 1.75z" fill="#fecccd"/></g><g fill="#9a2700"><path d="m49.375 22.364h.958a1.75 1.75 0 0 0 0-3.5h-.958a1.75 1.75 0 0 0 0 3.5z"/><path d="m100.235 103.688-5.313-49.05a4.913 4.913 0 0 0 -4.891-4.388h-34.531v-8.65h17v4.323a1.75 1.75 0 0 0 3.5 0v-6.07a1.75 1.75 0 0 0 -1.75-1.75h-2.366v-5.353h16.871a9.656 9.656 0 0 0 9.234-6.944l1.36-4.706a1.752 1.752 0 0 0 -1.682-2.236h-41.25a1.75 1.75 0 0 0 0 3.5h38.923l-.714 2.47a6.139 6.139 0 0 1 -5.871 4.416h-49.51a6.139 6.139 0 0 1 -5.871-4.416l-.714-2.47h10.09a1.75 1.75 0 0 0 0-3.5h-12.417a1.752 1.752 0 0 0 -1.682 2.236l1.36 4.706a9.656 9.656 0 0 0 9.234 6.944h29.139v5.35h-8.768v-1.674a1.75 1.75 0 0 0 -3.5 0v1.674h-2.366a1.75 1.75 0 0 0 -1.75 1.753v10.4h-14.031a4.913 4.913 0 0 0 -4.891 4.389l-5.313 49.049a4.919 4.919 0 0 0 4.89 5.448h40.6a1.75 1.75 0 0 0 0-3.5h-40.6a1.419 1.419 0 0 1 -1.41-1.571l5.314-49.049a1.416 1.416 0 0 1 1.41-1.266h52.062a1.416 1.416 0 0 1 1.41 1.266l5.314 49.049a1.419 1.419 0 0 1 -1.41 1.571h-8.095a1.75 1.75 0 0 0 0 3.5h8.095a4.919 4.919 0 0 0 4.89-5.448z"/><path d="m80.5 105.636h-.624a1.75 1.75 0 0 0 0 3.5h.624a1.75 1.75 0 0 0 0-3.5z"/><path d="m52.889 90.305a1.75 1.75 0 0 0 .223 2.465 16.978 16.978 0 1 0 -4.5-5.8 1.75 1.75 0 1 0 3.164-1.5 13.391 13.391 0 0 1 -1.292-5.775 13.514 13.514 0 1 1 4.869 10.389 1.748 1.748 0 0 0 -2.464.221z"/><path d="m65.75 79.693v-9.376a1.75 1.75 0 0 0 -3.5 0v9.376a1.75 1.75 0 0 0 3.5 0z"/></g></g></svg>