<svg height="512pt" viewBox="0 0 512 512" width="512pt" xmlns="http://www.w3.org/2000/svg"><path d="m388.257812 257.460938c-6.984374 12.601562-7.003906 40.828124-7.003906 41.152343 0 0-.527344 109.292969-79.46875 109.292969-29.503906 0-71.050781 0-71.050781 0-58.257813 0-91.167969-59.625-91.167969-110.925781v-113.9375c0-13.171875 10.675782-23.855469 23.859375-23.855469 6.578125 0 12.550781 2.675781 16.871094 6.984375 4.308594 4.320313 6.984375 10.289063 6.984375 16.871094v-48.3125c0-13.167969 10.675781-23.855469 23.855469-23.855469 6.578125 0 12.550781 2.667969 16.871093 6.988281 4.308594 4.316407 6.984376 10.277344 6.984376 16.867188v-37.195313c0-13.183594 10.675781-23.859375 23.855468-23.859375 6.589844 0 12.554688 2.667969 16.871094 6.988281 4.320312 4.316407 6.988281 10.28125 6.988281 16.871094v30.039063c0-13.179688 10.683594-23.855469 23.855469-23.855469 6.578125 0 12.539062 2.664062 16.859375 6.984375 4.328125 4.320313 6.996094 10.28125 6.996094 16.871094v127.980469c.507812-1.753907 1.054687-3.488282 1.640625-5.222657 2.253906-6.609375 5.109375-13.058593 8.570312-19.292969 7.277344-13.148437 23.84375-17.894531 36.984375-10.625.019531 0 .03125.007813.050781.019532 13.148438 7.308594 17.894532 23.875 10.59375 37.027344zm0 0" fill="#f2b375"/><g fill="#e09544"><path d="m196.207031 258.804688c-4.929687 0-8.921875-3.992188-8.921875-8.921876v-115.152343c0-13.171875 10.675782-23.855469 23.855469-23.855469 3.152344 0 6.164063.617188 8.921875 1.734375-8.761719 3.527344-14.933594 12.105469-14.933594 22.121094v115.15625c0 4.925781-3.996094 8.917969-8.921875 8.917969zm0 0"/><path d="m243.917969 257.09375c-4.925781 0-8.921875-3.992188-8.921875-8.921875v-150.640625c0-13.167969 10.675781-23.855469 23.855468-23.855469 3.152344 0 6.164063.617188 8.921876 1.734375-8.757813 3.527344-14.933594 12.105469-14.933594 22.121094v150.640625c0 4.929687-3.996094 8.921875-8.921875 8.921875zm0 0"/><path d="m291.628906 231.371094c-4.925781 0-8.921875-3.996094-8.921875-8.921875v-94.878907c0-13.167968 10.675781-23.855468 23.855469-23.855468 3.15625 0 6.167969.621094 8.921875 1.734375-8.757813 3.527343-14.933594 12.105469-14.933594 22.121093v94.878907c0 4.925781-3.992187 8.921875-8.921875 8.921875zm0 0"/><path d="m248.582031 407.90625c-10.59375 0-17.84375 0-17.84375 0-58.257812 0-91.167969-59.625-91.167969-110.925781v-113.9375c0-13.171875 10.675782-23.855469 23.855469-23.855469 3.15625 0 6.164063.617188 8.921875 1.734375-8.757812 3.527344-14.933594 12.105469-14.933594 22.121094v113.9375c0 51.300781 32.910157 110.925781 91.167969 110.925781zm0 0"/><path d="m196.207031 258.804688c-4.929687 0-8.921875-3.992188-8.921875-8.921876v-115.152343c0-13.171875 10.675782-23.855469 23.855469-23.855469 3.152344 0 6.164063.617188 8.921875 1.734375-8.761719 3.527344-14.933594 12.105469-14.933594 22.121094v115.15625c0 4.925781-3.996094 8.917969-8.921875 8.917969zm0 0"/><path d="m340.628906 231.039062c-3.460937 6.234376-6.316406 12.683594-8.570312 19.292969-.535156 1.988281-1.082032 3.742188-1.640625 5.222657-6.242188 16.675781-4.582031 33.628906-4.574219 33.695312l-.003906.003906c-31.847656 0-58.160156 23.695313-62.269532 54.417969-.613281 4.582031 2.792969 8.734375 7.394532 9.183594 3.734375.363281 7.210937-1.851563 8.535156-5.359375 19.507812-51.542969 68.640625-43.5625 68.640625-43.5625-12.53125-36.933594 16.445313-89.707032 29.472656-83.519532-13.140625-7.269531-29.707031-2.523437-36.984375 10.625zm0 0"/></g><path d="m256 7.605469c-137.1875 0-248.394531 111.207031-248.394531 248.394531s111.207031 248.394531 248.394531 248.394531 248.394531-111.207031 248.394531-248.394531-111.207031-248.394531-248.394531-248.394531zm-203.714844 248.394531c0-69.039062 34.351563-130.050781 86.890625-166.894531l194.460938 355.277343c-23.925781 9.871094-50.144531 15.332032-77.636719 15.332032-112.507812 0-203.714844-91.207032-203.714844-203.714844zm320.53125 166.898438-194.460937-355.277344c23.929687-9.875 50.148437-15.335938 77.644531-15.335938 112.507812 0 203.703125 91.207032 203.703125 203.714844 0 69.042969-34.347656 130.054688-86.886719 166.898438zm0 0" fill="#ff5a73"/><path d="m145.847656 85.453125c-1.039062-1.898437-2.835937-3.261719-4.945312-3.753906-2.109375-.492188-4.320313-.0625-6.09375 1.179687-56.433594 39.578125-90.128906 104.296875-90.128906 173.121094 0 116.523438 94.796874 211.320312 211.320312 211.320312 27.859375 0 54.957031-5.351562 80.539062-15.910156 2-.824218 3.550782-2.457031 4.269532-4.496094.71875-2.039062.539062-4.289062-.5-6.183593zm110.152344 366.65625c-108.136719 0-196.109375-87.972656-196.109375-196.109375 0-61.03125 28.546875-118.582031 76.78125-155.628906l28.050781 51.242187c-.433594-.015625-.863281-.03125-1.300781-.03125-17.347656 0-31.457031 14.113281-31.457031 31.460938v113.9375c0 11.789062 1.601562 23.765625 4.769531 35.59375.90625 3.402343 3.980469 5.644531 7.339844 5.644531.652343 0 1.3125-.085938 1.96875-.261719 4.058593-1.085937 6.464843-5.253906 5.382812-9.3125-2.824219-10.546875-4.253906-21.203125-4.253906-31.664062v-113.9375c0-8.960938 7.289063-16.253907 16.25-16.253907 4.335937 0 8.421875 1.695313 11.496094 4.757813.847656.847656 1.597656 1.78125 2.230469 2.777344.042968.066406.082031.136719.125.203125.289062.472656.554687.957031.804687 1.476562 1.058594 2.199219 1.597656 4.566406 1.597656 7.039063v71.375c0 4.199219 3.40625 7.605469 7.605469 7.605469s7.601562-3.40625 7.601562-7.605469v-47.695313l65.425782 119.527344c-3.25 8.203125-4.898438 16.875-4.898438 25.835938 0 4.199218 3.40625 7.601562 7.605469 7.601562s7.601563-3.402344 7.601563-7.601562c0-2.136719.128906-4.246094.367187-6.335938l29.859375 54.554688h-70.109375c-38.628906 0-59.675781-28.21875-68.785156-45.039063-2-3.691406-6.613281-5.066406-10.308594-3.0625-3.691406 1.996094-5.066406 6.613281-3.066406 10.304687 18.242187 33.6875 48.1875 53.003907 82.160156 53.003907h71.0625c2.433594 0 4.835937-.109375 7.203125-.304688l13.804688 25.222657c-21.375 7.753906-43.808594 11.679687-66.804688 11.679687zm0 0"/><path d="m371.089844 430.300781c.574218.136719 1.152344.199219 1.726562.199219 1.550782 0 3.078125-.472656 4.367188-1.378906 56.433594-39.574219 90.125-104.292969 90.125-173.121094 0-116.523438-94.792969-211.320312-211.308594-211.320312-27.859375 0-54.960938 5.355468-80.546875 15.910156-1.996094.824218-3.550781 2.460937-4.269531 4.5-.71875 2.039062-.535156 4.285156.5 6.179687l194.464844 355.277344c1.039062 1.898437 2.835937 3.265625 4.941406 3.753906zm-115.089844-370.410156c108.128906 0 196.101562 87.972656 196.101562 196.109375 0 61.03125-28.546874 118.585938-76.78125 155.628906l-13.671874-24.980468c26.628906-33.960938 27.199218-85.726563 27.207031-88.035157 0-7.382812 1.089843-28.507812 6.0625-37.46875 9.3125-16.792969 3.226562-38.039062-13.566407-47.359375-14.691406-8.152344-32.785156-4.523437-43.328124 7.75v-93.964844c0-8.402343-3.273438-16.300781-9.21875-22.242187-5.941407-5.945313-13.839844-9.21875-22.242188-9.21875-5.945312 0-11.507812 1.660156-16.253906 4.535156v-3.109375c0-8.40625-3.269532-16.308594-9.210938-22.25s-13.84375-9.210937-22.246094-9.210937c-17.347656 0-31.460937 14.113281-31.460937 31.460937v10.246094c-4.855469-2.9375-10.433594-4.507812-16.253906-4.507812-1.488281 0-2.964844.105468-4.425781.3125l-17.523438-32.011719c21.378906-7.757813 43.8125-11.683594 66.8125-11.683594zm57.289062 238.410156c4.082032-.949219 8.28125-1.441406 12.554688-1.441406 2.035156 0 3.980469-.816406 5.410156-2.261719 1.429688-1.445312 2.21875-3.402344 2.195313-5.433594-.230469-18.890624 4.550781-37.714843 13.828125-54.4375 5.25-9.46875 17.226562-12.894531 26.695312-7.644531 9.460938 5.253907 12.890625 17.226563 7.644532 26.6875-7.746094 13.957031-7.96875 41.722657-7.96875 44.804688-.003907.476562-.457032 43.335937-20.09375 73.292969zm-70.691406-129.152343v-71.613282c0-8.964844 7.289063-16.253906 16.25-16.253906 4.34375 0 8.425782 1.691406 11.496094 4.757812 3.066406 3.066407 4.757812 7.152344 4.757812 11.496094v102.023438c0 .023437.003907.046875.003907.070312v21.867188c0 4.199218 3.402343 7.601562 7.601562 7.601562s7.605469-3.402344 7.605469-7.601562v-93.925782c0-8.960937 7.289062-16.25 16.25-16.25 4.339844 0 8.417969 1.691407 11.492188 4.761719 3.070312 3.070313 4.761718 7.148438 4.761718 11.488281v127.019532c-2.5 8.960937-4.003906 18.171875-4.445312 27.453125-4.285156.449219-8.492188 1.296875-12.601563 2.523437zm-15.207031-27.785157-12.246094-22.371093c2.808594.710937 5.386719 2.144531 7.488281 4.246093 3.066407 3.066407 4.757813 7.148438 4.757813 11.492188zm0 0"/><path d="m482.535156 136.652344c-18.660156-35.34375-45.777344-66.285156-78.425781-89.480469-3.421875-2.433594-8.171875-1.628906-10.601563 1.792969-2.433593 3.425781-1.628906 8.171875 1.792969 10.605468 30.71875 21.824219 56.230469 50.933594 73.785157 84.183594 18.125 34.335938 27.707031 73.148438 27.707031 112.246094 0 64.316406-25.046875 124.785156-70.527344 170.265625s-105.949219 70.527344-170.265625 70.527344-124.785156-25.046875-170.265625-70.527344-70.527344-105.949219-70.527344-170.265625 25.046875-124.785156 70.527344-170.265625 105.949219-70.527344 170.265625-70.527344c39.894531 0 79.40625 9.957031 114.265625 28.792969 3.699219 1.996094 8.308594.617188 10.304687-3.074219 2-3.695312.621094-8.308593-3.074218-10.304687-37.074219-20.03125-79.085938-30.621094-121.496094-30.621094-68.378906 0-132.667969 26.628906-181.019531 74.980469-48.351563 48.351562-74.980469 112.640625-74.980469 181.019531s26.628906 132.667969 74.980469 181.019531c48.351562 48.351563 112.640625 74.980469 181.019531 74.980469s132.667969-26.628906 181.019531-74.980469c48.351563-48.351562 74.980469-112.640625 74.980469-181.019531 0-41.5625-10.1875-82.832031-29.464844-119.347656zm0 0"/></svg>