<svg id="Capa_1" enable-background="new 0 0 512 512" height="512" viewBox="0 0 512 512" width="512" xmlns="http://www.w3.org/2000/svg"><g id="XMLID_2497_"><g id="XMLID_1982_"><g id="XMLID_1995_"><g id="XMLID_1998_"><g id="XMLID_1999_"><g id="XMLID_2605_"><path id="XMLID_2662_" d="m408.25 502h-224c-22.091 0-40-17.909-40-40v-412c0-22.091 17.909-40 40-40h224c22.091 0 40 17.909 40 40v412c0 22.091-17.909 40-40 40z" fill="#79b2ff"/><path id="XMLID_2659_" d="m144.25 90h304v332h-304z" fill="#f9f9f9"/></g></g></g></g></g><circle id="XMLID_2005_" cx="144.25" cy="208.5" fill="#ffcb7c" r="80.5"/><g id="XMLID_2758_"><path id="XMLID_2764_" d="m269.25 189.901h54v107.665h-54z" fill="#f5737f"/><path id="XMLID_2763_" d="m323.25 145.566h54v152h-54z" fill="#78d0a9"/><path id="XMLID_2762_" d="m215.25 246.192h54v51.375h-54z" fill="#cee3ff"/></g><g id="XMLID_212_"><g id="XMLID_213_"><path id="XMLID_219_" d="m408.25 0h-224c-27.57 0-50 22.43-50 50v68.555c-45.213 4.993-80.5 43.422-80.5 89.945s35.287 84.952 80.5 89.945v163.555c0 27.57 22.43 50 50 50h224c27.57 0 50-22.43 50-50v-160.873c0-5.522-4.478-10-10-10s-10 4.478-10 10v110.873h-284v-113.555c19.535-2.157 37.217-10.553 51-23.152v22.273c0 5.522 4.478 10 10 10h162c5.522 0 10-4.478 10-10v-152c0-5.522-4.478-10-10-10h-54c-5.522 0-10 4.478-10 10v34.335h-44c-5.522 0-10 4.478-10 10v46.29h-28.839c2.813-8.732 4.339-18.036 4.339-27.691 0-46.522-35.287-84.952-80.5-89.945v-18.555h284v111.127c0 5.522 4.478 10 10 10s10-4.478 10-10v-161.127c0-27.57-22.43-50-50-50zm30 432v30c0 16.542-13.458 30-30 30h-224c-16.542 0-30-13.458-30-30v-30zm-105-276.434h34v132h-34zm-54 44.335h34v87.665h-34zm-20 87.665h-34v-31.375h34zm-44.5-79.066c0 38.874-31.626 70.5-70.5 70.5s-70.5-31.626-70.5-70.5 31.626-70.5 70.5-70.5 70.5 31.626 70.5 70.5zm-60.5-128.5v-30c0-16.542 13.458-30 30-30h224c16.542 0 30 13.458 30 30v30z"/><path id="XMLID_218_" d="m296.25 472c2.63 0 5.21-1.07 7.069-2.931 1.86-1.859 2.931-4.439 2.931-7.069s-1.07-5.21-2.931-7.07c-1.859-1.86-4.439-2.93-7.069-2.93s-5.21 1.069-7.07 2.93-2.93 4.44-2.93 7.07 1.069 5.21 2.93 7.069c1.86 1.861 4.44 2.931 7.07 2.931z"/><path id="XMLID_217_" d="m330.25 40h-67.746c-5.522 0-10 4.478-10 10s4.478 10 10 10h67.746c5.522 0 10-4.478 10-10s-4.478-10-10-10z"/><path id="XMLID_216_" d="m448.25 246.13c-2.63 0-5.21 1.06-7.07 2.92-1.86 1.87-2.93 4.44-2.93 7.08 0 2.63 1.069 5.21 2.93 7.07 1.86 1.859 4.44 2.93 7.07 2.93s5.21-1.07 7.069-2.93c1.86-1.87 2.931-4.44 2.931-7.07s-1.07-5.21-2.931-7.08c-1.859-1.861-4.439-2.92-7.069-2.92z"/><path id="XMLID_215_" d="m124.838 199.07c-3.906-3.904-10.236-3.904-14.143 0-3.905 3.905-3.905 10.237 0 14.143l19.228 19.228c1.953 1.952 4.512 2.929 7.071 2.929s5.118-.977 7.071-2.929l33.739-33.738c3.905-3.905 3.905-10.237 0-14.143-3.904-3.903-10.234-3.904-14.143 0l-26.668 26.668z"/><path id="XMLID_214_" d="m377.25 343h-162c-5.522 0-10 4.478-10 10s4.478 10 10 10h162c5.522 0 10-4.478 10-10s-4.478-10-10-10z"/></g></g></g></svg>