<svg height="464pt" viewBox="-131 0 463 464" width="464pt" xmlns="http://www.w3.org/2000/svg"><path d="m120.5 24c0-13.253906-10.746094-24-24-24s-24 10.746094-24 24h-72v440h200v-440zm0 0" fill="#7cb8eb"/><path d="m112.5 368v-264c0-8.835938-7.164062-16-16-16s-16 7.164062-16 16v264c-9.609375 4.132812-15.882812 13.539062-16 24 0 24 14.328125 32 32 32s32-8 32-32c-.117188-10.460938-6.390625-19.867188-16-24zm0 0" fill="#e6f1fd"/><path d="m24.5 112h32v-16h-16v-32h16v-16h-32zm0 0" fill="#f1c056"/><path d="m176.5 64v-16h-40v64h16v-16h16v-16h-16v-16zm0 0" fill="#f1c056"/><g fill="#fcec97"><path d="m136.5 128h32v16h-32zm0 0"/><path d="m136.5 160h16v16h-16zm0 0"/><path d="m136.5 192h32v16h-32zm0 0"/><path d="m136.5 224h16v16h-16zm0 0"/><path d="m136.5 256h32v16h-32zm0 0"/><path d="m136.5 288h16v16h-16zm0 0"/><path d="m136.5 320h32v16h-32zm0 0"/><path d="m24.5 128h32v16h-32zm0 0"/><path d="m40.5 160h16v16h-16zm0 0"/><path d="m24.5 192h32v16h-32zm0 0"/><path d="m40.5 224h16v16h-16zm0 0"/><path d="m24.5 256h32v16h-32zm0 0"/><path d="m40.5 288h16v16h-16zm0 0"/><path d="m24.5 320h32v16h-32zm0 0"/></g><path d="m176.5 440h-32v-16h16v-40h16zm0 0" fill="#3e5496"/><path d="m24.5 424h16v16h-16zm0 0" fill="#3e5496"/><path d="m80.5 128h32v32h-32zm0 0" fill="#c3565a"/><path d="m80.5 192h32v32h-32zm0 0" fill="#c3565a"/><path d="m80.5 256h32v32h-32zm0 0" fill="#c3565a"/><path d="m80.5 320h32v32h-32zm0 0" fill="#c3565a"/></svg>